{
  "accessors": [
    {
      "bufferView": 2,
      "componentType": 5126,
      "count": 65533,
      "max": [
        0.003890284337103367,
        0.003943782765418291,
        0.016807952895760536
      ],
      "min": [
        -0.004925956018269062,
        -0.0051946272142231464,
        0.00016704214795026928
      ],
      "type": "VEC3"
    },
    {
      "bufferView": 2,
      "byteOffset": 786396,
      "componentType": 5126,
      "count": 65533,
      "max": [
        0.9997740983963013,
        0.9999635219573975,
        0.9997972249984741
      ],
      "min": [
        -0.9998655915260315,
        -0.9998406171798706,
        -1.0
      ],
      "type": "VEC3"
    },
    {
      "bufferView": 1,
      "componentType": 5126,
      "count": 65533,
      "max": [
        0.9994399547576904,
        0.9994544386863708
      ],
      "min": [
        0.000244140625,
        0.00043070316314697266
      ],
      "type": "VEC2"
    },
    {
      "bufferView": 1,
      "byteOffset": 524264,
      "componentType": 5126,
      "count": 65533,
      "max": [
        0.9994399547576904,
        0.9994544386863708
      ],
      "min": [
        0.000244140625,
        0.00043070316314697266
      ],
      "type": "VEC2"
    },
    {
      "bufferView": 0,
      "componentType": 5125,
      "count": 65541,
      "type": "SCALAR"
    },
    {
      "bufferView": 2,
      "byteOffset": 1572792,
      "componentType": 5126,
      "count": 48711,
      "max": [
        0.003890284337103367,
        0.003943782765418291,
        0.016807952895760536
      ],
      "min": [
        -0.004925956018269062,
        -0.0051946272142231464,
        0.00016704214795026928
      ],
      "type": "VEC3"
    },
    {
      "bufferView": 2,
      "byteOffset": 2157324,
      "componentType": 5126,
      "count": 48711,
      "max": [
        0.9997740387916565,
        0.9999635219573975,
        0.9997967481613159
      ],
      "min": [
        -0.9998655915260315,
        -0.9998403787612915,
        -1.0
      ],
      "type": "VEC3"
    },
    {
      "bufferView": 1,
      "byteOffset": 1048528,
      "componentType": 5126,
      "count": 48711,
      "max": [
        0.9997550249099731,
        0.9997425079345703
      ],
      "min": [
        0.000244140625,
        0.0002442598342895508
      ],
      "type": "VEC2"
    },
    {
      "bufferView": 1,
      "byteOffset": 1438216,
      "componentType": 5126,
      "count": 48711,
      "max": [
        0.9997550249099731,
        0.9997425079345703
      ],
      "min": [
        0.000244140625,
        0.0002442598342895508
      ],
      "type": "VEC2"
    },
    {
      "bufferView": 0,
      "byteOffset": 262164,
      "componentType": 5125,
      "count": 48711,
      "type": "SCALAR"
    },
    {
      "bufferView": 2,
      "byteOffset": 2741856,
      "componentType": 5126,
      "count": 393,
      "max": [
        0.0013149650767445564,
        0.0039125909097492695,
        0.00016748238704167306
      ],
      "min": [
        -0.0048742638900876045,
        -0.002837365958839655,
        0.00016704214795026928
      ],
      "type": "VEC3"
    },
    {
      "bufferView": 2,
      "byteOffset": 2746572,
      "componentType": 5126,
      "count": 393,
      "max": [
        0.11569549143314362,
        0.16164161264896393,
        -0.9813928008079529
      ],
      "min": [
        -0.05294690281152725,
        -0.12367023527622223,
        -1.0
      ],
      "type": "VEC3"
    },
    {
      "bufferView": 1,
      "byteOffset": 1827904,
      "componentType": 5126,
      "count": 393,
      "max": [
        0.9803038239479065,
        0.9873110055923462
      ],
      "min": [
        0.17852838337421417,
        0.03438645601272583
      ],
      "type": "VEC2"
    },
    {
      "bufferView": 0,
      "byteOffset": 457008,
      "componentType": 5125,
      "count": 396,
      "type": "SCALAR"
    }
  ],
  "asset": {
    "extras": {
      "author": "3dcreation_lyon (https://sketchfab.com/3dcreation_lyon)",
      "license": "CC-BY-4.0 (http://creativecommons.org/licenses/by/4.0/)",
      "source": "https://sketchfab.com/3d-models/statuette-de-femme-antique-b0cc21ca37b649fda195c2b87a979f12",
      "title": "Statuette de femme antique"
    },
    "generator": "Sketchfab-12.68.0",
    "version": "2.0"
  },
  "bufferViews": [
    {
      "buffer": 0,
      "byteLength": 458592,
      "name": "floatBufferViews",
      "target": 34963
    },
    {
      "buffer": 0,
      "byteLength": 1831048,
      "byteOffset": 458592,
      "byteStride": 8,
      "name": "floatBufferViews",
      "target": 34962
    },
    {
      "buffer": 0,
      "byteLength": 2751288,
      "byteOffset": 2289640,
      "byteStride": 12,
      "name": "floatBufferViews",
      "target": 34962
    }
  ],
  "buffers": [
    {
      "byteLength": 5040928,
      "uri": "scene.bin"
    }
  ],
  "extensionsUsed": [
    "KHR_materials_unlit"
  ],
  "images": [
    {
      "uri": "textures/SAVE_REALITY_VIERGE_Mod_le_1_u1_v1_baseColor.png"
    }
  ],
  "materials": [
    {
      "emissiveFactor": [
        1.0,
        1.0,
        1.0
      ],
      "emissiveTexture": {
        "index": 0,
        "texCoord": 1
      },
      "extensions": {
        "KHR_materials_unlit": {}
      },
      "name": "SAVE_REALITY_VIERGE_Mod_le_1_u1_v1",
      "pbrMetallicRoughness": {
        "baseColorTexture": {
          "index": 0
        },
        "metallicFactor": 0.0
      }
    },
    {
      "emissiveFactor": [
        0.337164,
        0.296138,
        0.234551
      ],
      "extensions": {
        "KHR_materials_unlit": {}
      },
      "name": "Material_25",
      "pbrMetallicRoughness": {
        "baseColorFactor": [
          0.337164,
          0.296138,
          0.234551,
          1.0
        ],
        "metallicFactor": 0.0
      }
    }
  ],
  "meshes": [
    {
      "name": "Object_0",
      "primitives": [
        {
          "attributes": {
            "NORMAL": 1,
            "POSITION": 0,
            "TEXCOORD_0": 2,
            "TEXCOORD_1": 3
          },
          "indices": 4,
          "material": 0,
          "mode": 4
        }
      ]
    },
    {
      "name": "Object_1",
      "primitives": [
        {
          "attributes": {
            "NORMAL": 6,
            "POSITION": 5,
            "TEXCOORD_0": 7,
            "TEXCOORD_1": 8
          },
          "indices": 9,
          "material": 0,
          "mode": 4
        }
      ]
    },
    {
      "name": "Object_2",
      "primitives": [
        {
          "attributes": {
            "NORMAL": 11,
            "POSITION": 10,
            "TEXCOORD_0": 12
          },
          "indices": 13,
          "material": 1,
          "mode": 4
        }
      ]
    }
  ],
  "nodes": [
    {
      "children": [
        1
      ],
      "matrix": [
        0.4215657114982605,
        0.0,
        0.0,
        0.0,
        0.0,
        9.360639185957098e-17,
        -0.4215657114982605,
        0.0,
        0.0,
        0.4215657114982605,
        9.360639185957098e-17,
        0.0,
        0.0,
        0.0,
        0.0,
        1.0
      ],
      "name": "Sketchfab_model"
    },
    {
      "children": [
        2
      ],
      "name": "root"
    },
    {
      "children": [
        3,
        6
      ],
      "matrix": [
        1.0,
        0.0,
        0.0,
        0.0,
        0.0,
        2.220446049250313e-16,
        1.0,
        0.0,
        0.0,
        -1.0,
        2.220446049250313e-16,
        0.0,
        0.0,
        0.0,
        0.0,
        1.0
      ],
      "name": "GLTF_SceneRootNode"
    },
    {
      "children": [
        4,
        5
      ],
      "matrix": [
        100.0,
        0.0,
        -0.0,
        0.0,
        -0.0,
        0.0,
        -100.0,
        0.0,
        0.0,
        100.0,
        0.0,
        0.0,
        0.0,
        -0.0001670422643655911,
        0.0,
        1.0
      ],
      "name": "default_0"
    },
    {
      "mesh": 0,
      "name": "Object_4"
    },
    {
      "mesh": 1,
      "name": "Object_5"
    },
    {
      "children": [
        7
      ],
      "matrix": [
        100.0,
        0.0,
        -0.0,
        0.0,
        -0.0,
        -1.685873969314855e-05,
        -99.99999999999858,
        0.0,
        0.0,
        99.99999999999858,
        -1.685873969314855e-05,
        0.0,
        0.0,
        -0.0001670422643655911,
        0.0,
        1.0
      ],
      "name": "Object001_1"
    },
    {
      "mesh": 2,
      "name": "Object_7"
    }
  ],
  "samplers": [
    {
      "magFilter": 9729,
      "minFilter": 9987,
      "wrapS": 10497,
      "wrapT": 10497
    }
  ],
  "scene": 0,
  "scenes": [
    {
      "name": "Sketchfab_Scene",
      "nodes": [
        0
      ]
    }
  ],
  "textures": [
    {
      "sampler": 0,
      "source": 0
    }
  ]
}
